<svg width="33" height="30" viewBox="0 0 33 30" fill="none" xmlns="http://www.w3.org/2000/svg">
<g clip-path="url(#clip0_18_24)">
<path d="M29.9062 0H3.09375C1.38574 0 0 1.43973 0 3.21429V26.7857C0 28.5603 1.38574 30 3.09375 30H29.9062C31.6143 30 33 28.5603 33 26.7857V3.21429C33 1.43973 31.6143 0 29.9062 0ZM24.518 19.4531C24.8273 19.7746 24.8273 20.2969 24.518 20.6183L21.9076 23.3304C21.5982 23.6518 21.0955 23.6518 20.7861 23.3304L16.5 18.8371L12.2139 23.3304C11.9045 23.6518 11.4018 23.6518 11.0924 23.3304L8.48203 20.6183C8.17266 20.2969 8.17266 19.7746 8.48203 19.4531L12.8068 15L8.48203 10.5469C8.17266 10.2254 8.17266 9.70313 8.48203 9.3817L11.0924 6.66964C11.4018 6.34821 11.9045 6.34821 12.2139 6.66964L16.5 11.1629L20.7861 6.66964C21.0955 6.34821 21.5982 6.34821 21.9076 6.66964L24.518 9.3817C24.8273 9.70313 24.8273 10.2254 24.518 10.5469L20.1932 15L24.518 19.4531Z" fill="#B70404"/>
</g>
<defs>
<clipPath id="clip0_18_24">
<rect width="33" height="30" fill="white"/>
</clipPath>
</defs>
</svg>
